<svg width="100" height="24" viewBox="0 0 100 24" fill="none" xmlns="http://www.w3.org/2000/svg">
<path d="M31.5543 4.62151H28.9286V18.7683H31.5543V4.62151Z" fill="#FF2828"/>
<path d="M39.6382 7.85203C38.0607 7.85203 36.7453 8.37617 35.9188 9.36902V7.97299H33.5148V18.7683H36.0397V13.3102C36.0397 11.1481 37.2543 10.0544 39.0535 10.0544C40.6713 10.0544 41.6188 10.9818 41.6188 12.907V18.7683H44.1437V12.5844C44.1488 9.3287 42.2286 7.85203 39.6382 7.85203Z" fill="#FF2828"/>
<path d="M50.5141 16.8279C49.5414 16.8279 49.0173 16.2635 49.0173 15.2102V10.0746H51.9101V8.05362H49.0173V5.46316H46.4923V8.05362H44.7133V10.0746H46.4923V15.2706C46.4923 17.6545 47.848 18.9094 50.2117 18.9094C51.1239 18.9094 52.0311 18.6675 52.6358 18.1836L51.9303 16.3844C51.5472 16.6868 51.0433 16.8279 50.5141 16.8279Z" fill="#FF2828"/>
<path d="M55.9117 9.55045V7.97299H53.5077V18.7683H56.0327V13.5319C56.0327 11.3295 57.2473 10.1955 59.1674 10.1955C59.3489 10.1955 59.5303 10.2157 59.7521 10.256V7.85203C57.9528 7.85203 56.6425 8.41649 55.9117 9.55045Z" fill="#FF2828"/>
<path d="M65.4773 7.85203C62.2619 7.85203 59.8982 10.1552 59.8982 13.3706C59.8982 16.586 62.2417 18.9094 65.8603 18.9094C67.72 18.9094 69.237 18.3046 70.2046 17.1505L68.8489 15.5932C68.0829 16.3794 67.1303 16.7675 65.9157 16.7675C64.0359 16.7675 62.7205 15.7545 62.4181 14.182H70.89C70.9102 13.9401 70.9304 13.6377 70.9304 13.4361C70.9304 10.0544 68.6272 7.85203 65.4773 7.85203ZM62.403 12.5038C62.6449 10.9263 63.8393 9.87804 65.4773 9.87804C67.1354 9.87804 68.3298 10.9515 68.5314 12.5038H62.403Z" fill="#FF2828"/>
<path d="M78.1322 7.85203C76.6556 7.85203 75.4007 8.35601 74.554 9.38917V7.97299H72.15V22.6892H74.6749V17.4529C75.5418 18.4457 76.7564 18.9094 78.1322 18.9094C81.2872 18.9094 83.6105 16.7271 83.6105 13.3706C83.6105 10.0343 81.2821 7.85203 78.1322 7.85203ZM77.845 16.7473C76.0256 16.7473 74.6296 15.4319 74.6296 13.3706C74.6296 11.3093 76.0256 9.99395 77.845 9.99395C79.6644 9.99395 81.0402 11.3093 81.0402 13.3706C81.0402 15.4319 79.6644 16.7473 77.845 16.7473Z" fill="#FF2828"/>
<path d="M86.075 3.28596C85.1477 3.28596 84.4572 3.95122 84.4572 4.80295C84.4572 5.64963 85.1426 6.31993 86.075 6.31993C87.0225 6.31993 87.6928 5.63451 87.6928 4.74247C87.6928 3.9109 87.0074 3.28596 86.075 3.28596Z" fill="#FF2828"/>
<path d="M87.3249 7.97299H84.7999V18.7683H87.3249V7.97299Z" fill="#FF2828"/>
<path d="M97.4751 3.76978V9.30854C96.6284 8.31569 95.3936 7.85203 93.9976 7.85203C90.8628 7.85203 88.5395 10.0141 88.5395 13.3706C88.5395 16.7271 90.8628 18.9094 93.9976 18.9094C95.4742 18.9094 96.7241 18.4054 97.5759 17.3722V18.7683H100V3.76978H97.4751ZM94.305 16.7473C92.4856 16.7473 91.0896 15.4319 91.0896 13.3706C91.0896 11.3093 92.4856 9.99395 94.305 9.99395C96.1244 9.99395 97.5204 11.3093 97.5204 13.3706C97.5154 15.4319 96.1193 16.7473 94.305 16.7473Z" fill="#FF2828"/>
<path d="M20.6733 4.17297C20.8145 5.07509 20.9153 5.95706 20.9959 6.73823C21.0009 6.76847 21.011 6.79871 21.0261 6.82895C21.8375 8.33585 22.271 10.0292 22.271 11.7881C22.271 12.5995 22.1803 13.4009 21.9988 14.172C21.7619 13.7587 21.4596 13.3908 21.0967 13.0834V12.2568C21.0967 11.9948 20.885 11.7831 20.6229 11.7831H20.2298C20.1643 11.7831 20.1139 11.7327 20.1139 11.6672V10.8054H20.3911C20.5222 10.8054 20.628 10.6995 20.628 10.5685V9.74196C20.628 9.61093 20.5222 9.50509 20.3911 9.50509H20.1089C20.0534 7.72604 19.6553 2.97349 18.5566 0.120959C18.5264 0.0403221 18.4155 0.0403221 18.3853 0.120959C17.2866 2.97349 16.8884 7.72604 16.838 9.51013H16.5558C16.4248 9.51013 16.3189 9.61597 16.3189 9.747V10.5735C16.3189 10.7046 16.4248 10.8104 16.5558 10.8104H16.833V11.6722C16.833 11.7377 16.7826 11.7881 16.7171 11.7881H16.324C16.0619 11.7881 15.8502 11.9998 15.8502 12.2619V13.0884C14.9733 13.8343 14.4189 14.938 14.4189 16.1778V17.473H13.9906C13.8595 17.473 13.7537 17.5789 13.7537 17.7099V18.6524C13.7537 18.7179 13.7033 18.7683 13.6378 18.7683H12.5643C12.4988 18.7683 12.4484 18.7179 12.4484 18.6524V13.6478C13.1741 13.3908 13.7083 12.7205 13.7587 11.9141C13.7638 11.8486 13.7083 11.7932 13.6428 11.7932H12.5693C12.5038 11.7932 12.4534 11.7428 12.4534 11.6773C12.4534 9.88812 12.4383 6.30481 11.8839 4.61143C11.8587 4.52576 11.7378 4.52576 11.7075 4.61143C11.1531 6.30481 11.138 9.88812 11.138 11.6773C11.138 11.7428 11.0876 11.7932 11.0221 11.7932H9.94862C9.8831 11.7932 9.82767 11.8486 9.83271 11.9141C9.88311 12.7205 10.4123 13.3908 11.1431 13.6478V18.6524C11.1431 18.7179 11.0927 18.7683 11.0271 18.7683H9.95366C9.88814 18.7683 9.83775 18.7179 9.83775 18.6524V17.7099C9.83775 17.5789 9.73191 17.473 9.60087 17.473H9.17249V16.2736C9.17249 16.208 9.16241 16.1476 9.13721 16.0871C8.38124 14.3232 6.62739 13.0834 4.58626 13.0834C3.45734 13.0834 2.4141 13.4613 1.58253 14.1014C1.39102 13.2497 1.30534 12.3727 1.33054 11.4757C1.40614 8.90031 2.43426 6.4308 4.21332 4.56607C6.24436 2.43423 9.00618 1.27508 11.9444 1.31035C13.5168 1.33051 15.059 1.7085 16.45 2.39895C16.5205 2.43423 16.6062 2.39391 16.6213 2.31832C16.6969 1.95041 16.7826 1.59258 16.8733 1.2398C16.8884 1.1894 16.8632 1.13396 16.8128 1.1138C15.2807 0.403189 13.5874 3.57308e-06 11.7982 3.57308e-06C5.30191 -0.00503624 -0.0150873 5.32205 3.21657e-05 11.8234C0.0201914 18.4457 5.49847 23.7829 12.1762 23.5712C18.4256 23.3696 23.4704 18.2492 23.5763 11.9948C23.6267 8.99103 22.5582 6.24433 20.754 4.13265C20.7237 4.09737 20.6633 4.12761 20.6733 4.17297Z" fill="#FF2828"/>
</svg>
