<?xml version="1.0" encoding="utf-8"?>
<!-- Generator: Adobe Illustrator 23.0.3, SVG Export Plug-In . SVG Version: 6.00 Build 0)  -->
<svg version="1.1" xmlns="http://www.w3.org/2000/svg" xmlns:xlink="http://www.w3.org/1999/xlink" x="0px" y="0px"
	 viewBox="0 0 2000 2000" style="enable-background:new 0 0 2000 2000;" xml:space="preserve">
<style type="text/css">
	.st0{fill:#FFFFFF;}
</style>
<g id="Layer_2">
</g>
<g id="Layer_1">
	<g>
		<path class="st0" d="M0,750.4c10.9-45.8,17.8-93,33.4-137.2c76.9-218.1,236.1-356.5,447.5-431.8c330.2-117.6,649.6-92.3,934,123.6
			c346.3,262.9,333.5,717.5-19.8,970.8c-181.4,130.1-385.7,182.2-607,168.8c-48.2-2.9-84.8,5.5-124.1,38.7
			c-153.9,130.4-338.2,173.7-534.8,175.3c-18-33.4,3.3-43.3,24.2-56.6c88.9-56.2,153.9-128.7,160.2-240.6
			c1.7-30.7-7.7-51.2-33.6-70.7C146.1,1189.8,50.1,1062,13.2,895C8.5,873.5,4.4,851.9,0,830.4C0,803.7,0,777,0,750.4z M533.7,1298.3
			c10.9-4,17.8-4.6,21.6-8.3c65.1-63.1,142.1-70.6,229.6-64.4c190.4,13.6,367.8-29,515.9-157.8c104.5-90.9,160.9-203.4,139.5-345.2
			c-16.3-108.3-78.4-189.3-161-256.6c-116.6-95.1-253-127.9-400.3-130.5c-197.5-3.5-377.4,40-526.6,179.2
			c-222.2,207.1-129.3,470.2,45.2,584.1C472,1147.3,523.6,1203.9,533.7,1298.3z"/>
		<path class="st0" d="M1848.9,1888.1c-52.2-8.3-104.7-15.4-156.6-25.2c-102.5-19.5-191.4-66.9-272-132.5
			c-15-12.2-38.6-20.8-57.8-20c-165.2,6.4-324.9-11.7-471.5-95.6c-7.7-4.4-15.5-8.6-22.9-13.5c-1.9-1.3-2.3-4.7-1.7-3.3
			c513.5-61.2,890.1-271.7,940.4-850.7c92.8,80.8,160.3,180.6,183.9,307.7c2.1,11.2,6.1,22.1,9.2,33.2c0,29.6,0,59.3,0,88.9
			c-4.8,19.8-9.7,39.5-14.5,59.3c-33.3,137.2-113.5,241.9-226.2,323c-21.7,15.6-30.4,31.7-29.8,58.4
			c2.1,95.1,49.6,162.5,128.2,208.8c26.5,15.6,39.5,32,35.7,61.7C1878.5,1888.1,1863.7,1888.1,1848.9,1888.1z"/>
	</g>
</g>
</svg>
